<svg width="482" height="352" viewBox="0 0 482 352" fill="none" xmlns="http://www.w3.org/2000/svg">
<g clip-path="url(#clip0_102_2)">
<path d="M269.039 346.427C364.826 346.427 442.476 268.877 442.476 173.213C442.476 77.5503 364.826 0 269.039 0C173.253 0 95.6023 77.5503 95.6023 173.213C95.6023 268.877 173.253 346.427 269.039 346.427Z" fill="#F2F2F2"/>
<path d="M322.047 108.201C346.957 108.201 367.15 88.0337 367.15 63.1561C367.15 38.2786 346.957 18.1113 322.047 18.1113C297.138 18.1113 276.944 38.2786 276.944 63.1561C276.944 88.0337 297.138 108.201 322.047 108.201Z" fill="#EA00DF"/>
<path d="M224.906 244.162L185.44 195.045C188.439 232.107 203.388 270.992 204.35 273.464C212.678 265.116 219.43 255.05 224.906 244.162Z" fill="#42C497"/>
<path d="M181.496 182.397L182.011 182.644C179.409 180.134 176.737 177.74 173.995 175.462L177.068 222.352L176.828 222.248C178.244 223.89 179.616 225.531 180.944 227.172L181.496 182.397Z" fill="#42C497"/>
<path d="M194.845 246.854C201.207 257.421 205.724 267.899 208.337 278.175C209.481 269.052 212.956 231.667 197.722 202.821L194.845 246.854Z" fill="#42C497"/>
<path d="M181.965 228.448C182.373 228.96 182.785 229.472 183.185 229.983C187.027 234.884 190.598 239.99 193.884 245.278L196.734 201.662L197.233 201.917C194.508 196.861 191.154 192.17 187.248 187.956C185.706 186.307 184.131 184.702 182.524 183.139L181.965 228.448Z" fill="#42C497"/>
<path fill-rule="evenodd" clip-rule="evenodd" d="M132.107 33.5636L133.301 58.4287C121.908 43.3682 112.705 33.375 111.126 31.683C111.443 31.6157 111.761 31.5494 112.084 31.4918C118.3 30.3848 125.099 31.1767 132.107 33.5636ZM134.2 59.6211L132.967 33.9518L132.538 33.7139C138.778 35.8947 145.176 39.3303 151.47 43.8208L151.041 43.5472L150.265 82.7083C144.823 74.2183 139.31 66.4284 134.2 59.6211ZM189.886 89.0529L190.3 89.4472C188.601 86.2569 186.801 83.1551 184.899 80.1418L173.309 125.685L173.113 125.512C173.951 127.51 174.748 129.494 175.503 131.465L189.886 89.0529ZM172.657 63.5021L172.231 63.161L164.715 107.627C160.711 99.8857 156.178 92.025 151.114 84.0445L151.906 44.1372C159.565 49.7513 166.53 56.2516 172.657 63.5021ZM88.1606 75.6201C88.8118 82.3465 90.1417 88.9901 92.1301 95.4494L161.241 102.569C157.633 95.9241 153.908 89.6902 150.293 84.0087L88.3363 76.1628L88.1606 75.6201ZM94.4585 102.357L94.6446 102.898C93.7763 100.571 92.9926 98.2685 92.2935 95.9917L92.4758 96.5341L161.841 103.68C162.705 105.287 163.56 106.915 164.405 108.566L94.4585 102.357ZM184.111 79.1922L184.531 79.5625C181.063 74.1155 177.232 68.9083 173.062 63.9766L165.444 109.043C168.084 114.22 170.476 119.324 172.618 124.355L184.111 79.1922ZM233.366 224.384L189.313 180.189C189.451 179.841 189.59 179.487 189.731 179.124L233.727 223.263L233.764 223.24C236.471 215.326 238.748 207.273 240.587 199.114L196.898 155.922C196.989 155.521 197.08 155.118 197.169 154.713L240.86 197.906C241.264 196.096 241.646 194.298 242.007 192.51L198.446 148.211C198.519 147.789 198.59 147.364 198.659 146.939L242.254 191.272C243.718 183.856 244.831 176.682 245.675 170.003L202.967 124.494L203.179 123.965C202.152 125.479 201.167 127.02 200.225 128.587C200.233 123.568 199.863 118.498 198.996 113.486L182.632 154.475C183.985 160.324 184.929 166.019 185.462 171.544C185.359 172.556 185.274 173.571 185.208 174.587L185.751 175.131C185.785 175.658 185.815 176.183 185.842 176.706L185.122 175.984C185.092 176.55 185.066 177.117 185.042 177.683C184.75 169.997 183.612 162.251 181.844 154.58L120.08 141.89C123.039 144.923 126.132 147.875 129.293 150.728C122.509 148.722 115.939 147.608 109.83 147.471L110.311 147.565L119.428 171.597C126.395 176.493 134.049 182.199 141.852 188.594L130.75 152.031C131.165 152.4 131.582 152.767 132 153.132L143.073 189.602C150.358 195.629 157.103 201.705 163.306 207.831L158.21 173.459C158.57 173.71 158.929 173.959 159.286 174.205L164.438 208.954C168.551 213.062 172.405 217.178 176 221.301L173.526 183.564C179.768 187.463 183.984 189.829 184.726 190.242C184.828 189.128 184.91 188.012 184.972 186.893C185.038 189.452 185.174 192.011 185.382 194.564L185.636 193.993L225.392 243.472C228.43 237.274 231.093 230.9 233.366 224.384ZM107.476 127.187C111.177 132.166 115.208 136.891 119.542 141.332L119.373 140.73L181.592 153.514C179.973 146.805 177.953 140.2 175.543 133.733L107.476 127.187ZM110.565 32.1125C110.704 32.2599 120.434 42.5566 132.764 58.8478L91.1262 49.4516C94.7613 40.2489 101.368 33.8908 110.725 31.7693L110.565 32.1125ZM176.248 133.443L176.252 133.454C176.425 133.914 176.598 134.373 176.764 134.831C178.901 140.677 180.718 146.635 182.206 152.679L198.415 112.078L198.811 112.475C197.784 106.825 196.046 101.329 193.636 96.1155C192.68 94.0715 191.679 92.0583 190.633 90.0759L176.079 132.993C176.134 133.139 176.189 133.286 176.244 133.432L176.248 133.443ZM133.681 60.0635C138.733 66.7908 144.183 74.487 149.569 82.8768L88.117 75.0948C87.3117 65.4992 88.2839 56.9079 90.9429 49.9146L91.0873 50.4514L133.681 60.0635ZM175.119 132.599L175.105 132.64L106.649 126.056C103.669 121.946 101.069 117.573 98.884 112.992C97.3836 109.776 96.0381 106.594 94.8477 103.446L164.966 109.67C168.76 117.126 172.149 124.78 175.119 132.599ZM264.298 120.413L248.855 140.969C248.443 149.467 247.715 158.979 246.483 168.983L272.091 139.317L272.247 139.801C270.267 132.333 267.533 125.611 264.12 119.957L264.298 120.413ZM263.884 119.566L248.924 139.478C249.768 120.621 249.062 107.062 248.926 104.753C249.213 104.903 249.5 105.055 249.786 105.216C255.28 108.323 260.011 113.264 263.884 119.566ZM272.948 199.108L273.014 199.675C273.744 196.136 274.338 192.601 274.797 189.068L236.786 216.762L236.745 216.504C236.114 218.577 235.461 220.613 234.784 222.612L272.948 199.108ZM275.996 168.455L275.885 167.92L241.699 197.38C243.559 188.868 245.088 179.926 246.284 170.554L272.381 140.322C274.694 149.524 275.907 158.968 275.996 168.455ZM274.797 187.835L274.884 188.388C275.692 181.984 276.066 175.532 276.004 169.078L241.356 198.936C240.083 204.605 238.665 210.059 237.102 215.298L274.797 187.835ZM206.313 272.731C213.605 265.026 220.048 255.606 225.579 244.582L264.36 223.437C248.119 251.73 214.641 268.812 206.313 272.731ZM248.219 104.726C248.233 104.929 249.15 119.057 248.243 139.459L222.175 105.699C230.852 100.926 240 100.238 248.562 104.564L248.219 104.726ZM234.251 224.156C234.198 224.311 234.144 224.466 234.091 224.621L234.09 224.623C233.93 225.086 233.77 225.55 233.606 226.008C231.518 231.872 229.112 237.618 226.398 243.221L264.811 222.275L264.863 222.833C267.681 217.828 269.852 212.487 271.325 206.937C271.894 204.753 272.409 202.565 272.87 200.373L234.251 224.156ZM248.172 140.979C247.767 149.378 247.05 158.778 245.84 168.67L203.48 123.532C208.988 115.629 215.224 109.631 221.738 105.938L221.506 106.444L248.172 140.979ZM118.204 170.74L109.373 147.461C101.97 147.354 95.2578 148.7 89.6895 151.672C89.3998 151.826 89.118 151.987 88.8372 152.149C90.8628 153.271 102.708 159.934 118.204 170.74ZM80.595 201.024C83.296 207.22 86.6169 213.128 90.5072 218.657L158.437 204.094C152.949 198.888 147.478 194.109 142.281 189.822L80.93 201.486L80.595 201.024ZM94.8593 224.508L95.204 224.965C93.6577 223.02 92.1999 221.072 90.8303 219.122L91.1716 219.582L159.352 204.965C160.671 206.226 161.988 207.511 163.302 208.82L94.8593 224.508ZM130.777 253.831C125.281 250.946 119.985 247.696 114.924 244.103L181.683 229.317C185.977 234.723 189.943 240.381 193.559 246.261L130.43 253.311L130.777 253.831ZM117.823 171.304C101.055 159.617 88.6152 152.828 88.4364 152.731L88.4827 152.355C80.2405 157.261 75.9252 165.347 75.3164 175.222L117.823 171.304ZM119.071 172.177C125.958 177.016 133.523 182.652 141.242 188.969L80.3907 200.538C76.655 191.661 74.9207 183.19 75.2851 175.719L75.5885 176.185L119.071 172.177ZM194.128 247.198L131.462 254.195C164.412 271.506 205.3 279.712 207.906 280.223C205.304 268.729 200.406 257.645 194.128 247.198ZM180.93 228.369L180.929 228.412L113.788 243.283C109.681 240.294 105.856 236.938 102.36 233.256C99.9373 230.66 97.673 228.05 95.5664 225.423L164.177 209.697C170.093 215.616 175.685 221.849 180.93 228.369Z" fill="url(#paint0_linear_102_2)"/>
<path d="M482 294.417C482 315.191 374.997 352 243.001 352C111.006 352 4.00244 315.191 4.00244 294.417C4.00244 273.643 111.006 276.771 243.001 276.771C374.997 276.771 482 273.643 482 294.417Z" fill="url(#paint1_linear_102_2)"/>
<path d="M243.001 332.032C374.997 332.032 482 315.191 482 294.417C482 273.643 374.997 256.802 243.001 256.802C111.006 256.802 4.00244 273.643 4.00244 294.417C4.00244 315.191 111.006 332.032 243.001 332.032Z" fill="#145287"/>
<path opacity="0.1" d="M284.437 255.101C284.437 277.734 252.849 270.734 214.173 270.734C175.496 270.734 144.378 277.734 144.378 255.101C144.378 232.469 175.961 227.546 214.638 227.546C253.314 227.546 284.437 232.469 284.437 255.101Z" fill="black"/>
<path d="M284.437 249.529C284.437 272.162 252.849 265.161 214.173 265.161C175.496 265.161 144.378 272.162 144.378 249.529C144.378 226.896 175.961 221.974 214.638 221.974C253.314 221.974 284.437 226.896 284.437 249.529Z" fill="#1192DA"/>
<path d="M160.017 187.253C160.867 186.648 161.806 186.178 162.8 185.859C169.103 183.517 175.707 182.081 182.414 181.595C188.246 181.182 194.567 181.672 199.122 185.333C199.831 185.852 200.41 186.527 200.817 187.305C201.39 188.54 201.216 189.976 201.031 191.324C200.989 191.847 200.857 192.359 200.641 192.837C200.028 194.003 198.518 194.411 197.208 194.271C195.897 194.132 194.667 193.578 193.374 193.321C192.574 193.182 191.764 193.099 190.952 193.075L182.843 192.636C177.801 192.364 172.692 192.095 167.746 193.112C166.223 193.385 164.752 193.892 163.384 194.613C162.254 195.246 161.493 196.155 160.445 194.985C158.603 192.93 157.584 189.152 160.017 187.253Z" fill="#263238"/>
<path d="M172.582 190.834C172.582 190.834 183.489 185.951 187.626 191.586C191.764 197.22 185.37 194.966 185.37 194.966L178.224 197.22L170.326 195.717L172.582 190.834Z" fill="#F2F2F2"/>
<path d="M173.147 187.266C173.147 187.266 174.651 194.403 173.523 196.281C172.395 198.159 179.917 200.788 179.917 200.788L187.063 197.783C187.063 197.783 185.182 186.139 187.063 183.885L173.147 187.266Z" fill="#FFB9B9"/>
<path opacity="0.1" d="M173.147 187.266C173.147 187.266 174.651 194.403 173.523 196.281C172.395 198.159 179.917 200.788 179.917 200.788L187.063 197.783C187.063 197.783 185.182 186.139 187.063 183.885L173.147 187.266Z" fill="black"/>
<path d="M166.099 273.081C167.11 275.175 167.942 277.351 168.584 279.586C168.595 279.659 168.621 279.73 168.661 279.793C168.701 279.856 168.753 279.91 168.815 279.952C168.878 279.993 168.948 280.021 169.021 280.033C169.095 280.045 169.17 280.042 169.243 280.023L175.933 280.016C176.758 280.015 177.866 279.75 177.857 278.925C177.851 278.346 177.258 277.985 176.817 277.609C175.592 276.565 175.274 274.844 174.766 273.319C173.78 270.379 171.881 267.831 169.344 266.045C169.001 265.776 168.606 265.582 168.184 265.472C167.76 265.411 167.328 265.434 166.913 265.541C165.739 265.778 161.354 266.587 162.182 268.293C162.539 269.028 163.861 269.793 164.415 270.479C165.061 271.289 165.625 272.16 166.099 273.081Z" fill="#575A89"/>
<path d="M189.362 265.332C189.127 265.827 188.864 266.309 188.576 266.776C187.607 268.372 186.463 269.861 185.561 271.496C184.952 272.495 184.576 273.618 184.461 274.781C184.41 275.363 184.499 275.948 184.721 276.489C184.943 277.029 185.292 277.508 185.738 277.885C186.709 278.621 188.041 278.655 189.248 278.484C190.455 278.313 191.655 277.967 192.87 278.058C192.46 275.742 194.416 273.703 194.906 271.402C195.043 270.756 195.064 270.086 195.248 269.451C195.446 268.871 195.699 268.311 196.005 267.779C196.979 265.884 197.667 263.857 198.048 261.761C198.094 261.507 192.101 261.465 191.539 261.587C189.785 261.966 190.041 263.879 189.362 265.332Z" fill="#575A89"/>
<path d="M143.173 228.94C141.462 231.614 141.856 235.157 143.058 238.095C144.259 241.032 146.172 243.629 147.481 246.52C148.315 248.363 148.9 250.318 149.84 252.11C151.003 254.329 152.702 256.285 153.483 258.665C153.981 260.183 154.095 261.846 154.901 263.225C155.389 263.962 155.945 264.651 156.562 265.283C158.299 267.27 159.603 269.596 160.391 272.113C161.128 269.921 163.334 268.483 165.601 268.009C167.867 267.535 170.215 267.857 172.508 268.181C171.229 266.202 169.938 264.198 169.175 261.969C168.438 259.814 168.22 257.521 167.724 255.297C166.705 250.738 164.529 246.533 162.376 242.387L173.447 241.51C175.254 241.329 177.071 241.261 178.886 241.309C181.744 241.443 184.543 242.143 187.386 242.466C190.228 242.789 193.235 242.705 195.768 241.377C190.925 248.318 188.402 256.61 188.561 265.069C189.644 264.232 190.9 263.646 192.239 263.356C193.577 263.066 194.963 263.079 196.296 263.393C197.629 263.707 198.875 264.315 199.942 265.172C201.009 266.029 201.871 267.114 202.465 268.346C206.803 262.425 206.288 254.181 209.726 247.697C210.433 246.363 211.299 245.121 212.062 243.819C213.504 241.204 214.738 238.48 215.753 235.672C216.715 233.215 217.684 230.482 216.762 228.01C216.379 227.073 215.821 226.216 215.118 225.486C213.134 223.302 210.373 221.686 207.422 221.619C202.89 221.516 199.147 224.87 195.172 227.045C190.427 229.564 185.059 230.676 179.703 230.249C174.243 229.863 169.028 228.078 163.826 226.506C161.224 225.683 158.579 225.002 155.903 224.465C153.672 224.047 151.548 224.51 149.349 225.08C146.956 225.7 144.55 226.787 143.173 228.94Z" fill="#263238"/>
<path d="M190.447 180.129C190.445 183.117 189.255 185.982 187.14 188.095C185.024 190.207 182.156 191.395 179.164 191.398C178.492 191.399 177.821 191.339 177.16 191.217C175.048 190.837 173.089 189.862 171.512 188.409C169.935 186.955 168.806 185.083 168.258 183.011C167.709 180.94 167.763 178.755 168.413 176.712C169.064 174.67 170.284 172.856 171.93 171.482C173.577 170.108 175.582 169.231 177.71 168.955C179.838 168.678 182 169.014 183.944 169.921C185.888 170.829 187.532 172.272 188.684 174.08C189.836 175.888 190.448 177.986 190.447 180.129Z" fill="#FFB9B9"/>
<path d="M172.583 190.834C172.583 190.834 174.651 191.773 175.403 192.525C176.155 193.276 178.412 197.408 182.173 194.778C185.934 192.149 186.31 190.646 187.439 190.646C188.567 190.646 190.071 192.9 190.071 192.9L200.414 223.889C197.627 227.031 194.396 229.752 190.824 231.965C184.806 235.721 177.66 237.599 174.275 236.096C170.89 234.594 164.496 233.467 163.368 230.462C162.24 227.457 160.359 218.442 160.359 218.442L165.625 195.53L172.583 190.834Z" fill="#F2F2F2"/>
<path d="M171.13 222.175C171.95 220.406 172.069 218.404 172.139 216.456C172.249 214.527 172.198 212.592 171.986 210.671C171.652 208.158 170.833 205.738 170.316 203.256C169.862 201.08 169.642 198.862 169.658 196.639C169.665 195.625 169.739 194.557 170.292 193.706C170.678 193.113 171.282 192.653 171.524 191.988C171.997 190.684 170.828 189.318 169.547 188.78C167.987 188.196 166.28 188.128 164.678 188.585C163.089 189.044 161.554 189.671 160.099 190.456C158.998 190.925 157.986 191.578 157.106 192.388C155.939 193.595 155.426 195.275 155.011 196.901C154.679 198.202 154.384 199.56 154.637 200.879C155.047 203.021 156.795 204.632 157.727 206.604C158.81 208.894 158.737 211.562 158.306 214.058C157.876 216.554 157.112 218.994 156.876 221.515C156.64 224.036 157.002 226.747 158.584 228.726C159.228 229.532 160.977 231.444 162.157 231.228C163.084 231.058 164.428 229.02 165.174 228.374C167.332 226.508 169.891 224.848 171.13 222.175Z" fill="#263238"/>
<path d="M190.836 189.609C190.868 191.704 189.944 193.696 188.856 195.487C187.769 197.279 186.492 198.974 185.69 200.91C184.695 203.334 184.491 206.01 185.109 208.556C185.339 209.424 185.616 210.278 185.939 211.115L188 216.76C188.277 217.648 188.68 218.491 189.195 219.266C189.661 219.859 190.207 220.384 190.819 220.826C192.384 222.088 194.185 223.027 196.118 223.587C198.063 224.142 200.14 224.024 202.01 223.251C202.208 215.598 203.439 208.007 205.67 200.683C206.082 199.331 206.532 197.908 206.214 196.53C205.858 194.988 204.617 193.83 203.438 192.772C199.831 189.537 195.865 186.14 191.037 185.704C188.243 185.451 190.812 188.095 190.836 189.609Z" fill="#263238"/>
<path d="M166.154 233.281C166.44 233.84 166.618 234.449 166.901 235.01C167.318 235.762 167.834 236.455 168.435 237.071C170.95 239.855 174.024 242.63 177.775 242.798C178.148 242.832 178.523 242.785 178.876 242.659C179.193 242.497 179.466 242.26 179.67 241.968C179.874 241.677 180.004 241.34 180.047 240.986C180.313 239.532 179.67 238.08 179.027 236.749C177.631 233.863 176.062 230.903 173.449 229.042C172.145 228.149 170.655 227.563 169.091 227.328C167.527 227.094 165.931 227.216 164.421 227.685C163.06 228.104 160.804 228.835 162.605 230.075C163.972 231.016 165.361 231.732 166.154 233.281Z" fill="#FFB9B9"/>
<path d="M182.369 196.537C181.978 195.481 181.377 194.514 180.604 193.695C179.824 193.036 178.901 192.569 177.908 192.33C176.621 191.963 175.291 191.773 173.953 191.764C172.36 191.754 170.513 192.181 169.836 193.621C169.299 194.765 169.716 196.119 170.257 197.261C170.488 197.853 170.873 198.372 171.372 198.766C172.058 199.229 172.947 199.214 173.761 199.37C175.024 199.69 176.219 200.231 177.293 200.968L180.083 202.652L184.875 205.545C184.748 205.469 184.793 202.187 184.646 201.649C184.172 199.916 183.105 198.178 182.369 196.537Z" fill="#FFB9B9"/>
<path d="M168.41 278.735C167.289 280.257 167.514 282.432 166.52 284.04C165.659 285.434 164.037 286.165 162.96 287.4C162.616 287.811 162.31 288.251 162.045 288.715C161.046 290.386 160.234 292.528 161.218 294.208C162.009 295.56 163.673 296.088 165.198 296.448C167.127 296.903 169.13 297.267 171.081 296.919C173.032 296.572 174.938 295.379 175.633 293.526C175.77 293.06 175.933 292.602 176.12 292.154C177.177 290.075 180.494 290.053 181.576 287.987C182.333 286.541 181.637 284.793 180.941 283.317L178.816 278.808C178.111 277.312 175.252 278.172 173.762 277.814C171.818 277.346 169.808 276.831 168.41 278.735Z" fill="#263238"/>
<path d="M184.853 274.789C183.983 275.473 183.318 276.383 182.931 277.419C181.879 279.843 181.518 282.499 181.167 285.117C180.967 286.158 180.947 287.226 181.106 288.274C181.559 290.412 183.499 291.986 185.587 292.64C187.675 293.294 189.914 293.193 192.1 293.086C192.805 293.104 193.505 292.962 194.147 292.671C195.245 292.066 195.675 290.644 195.486 289.406C195.298 288.167 194.62 287.065 193.957 286.002C193.294 284.939 192.616 283.838 192.426 282.599C192.107 280.517 193.008 277.459 191.727 275.575C190.443 273.687 186.567 273.589 184.853 274.789Z" fill="#263238"/>
<path d="M190.163 174.257C189.963 173.583 189.521 173.006 188.921 172.637C188.952 171.916 188.864 171.194 188.659 170.501C187.976 168.483 186.357 168.599 184.83 167.707C184.167 167.32 184.208 166.978 183.863 166.342C183.411 165.509 182.734 164.819 181.909 164.351C180.929 163.727 179.895 163.085 178.736 163.006C176.3 162.841 174.432 165.129 172.104 165.863C171.077 166.187 169.975 166.2 168.943 166.506C167.911 166.812 166.882 167.543 166.728 168.607C166.657 169.098 166.783 169.602 166.711 170.093C166.567 171.069 165.71 171.752 165.136 172.555C163.867 174.33 164.012 176.837 165.027 178.768C165.241 179.168 165.486 179.55 165.759 179.912C165.844 180.825 166.106 181.712 166.532 182.524C167.547 184.456 169.293 185.899 171.117 187.098C170.968 186.457 170.877 185.804 170.847 185.148C170.821 184.929 170.849 184.707 170.93 184.501C171.133 184.077 171.67 183.964 172.079 183.732C172.927 183.251 173.259 182.186 173.284 181.213C173.308 180.239 173.101 179.264 173.204 178.296C173.208 178.073 173.258 177.854 173.352 177.652C173.446 177.45 173.582 177.27 173.75 177.123C174.063 176.945 174.42 176.86 174.78 176.878C176.517 176.807 178.332 176.775 179.864 175.955C180.358 175.627 180.889 175.359 181.446 175.156C182.748 174.816 184.079 175.728 184.829 176.843C185.58 177.959 185.954 179.286 186.646 180.439C187.339 181.591 188.535 182.619 189.873 182.482C189.949 182.482 190.023 182.467 190.092 182.436C190.161 182.405 190.223 182.361 190.273 182.305C190.331 182.201 190.356 182.083 190.347 181.964L190.422 176.854C190.484 175.98 190.396 175.102 190.163 174.257Z" fill="#2F2E41"/>
<path d="M154.456 200.988C153.379 202.574 152.138 204.099 151.546 205.922C151.199 206.993 151.091 208.126 150.839 209.223C150 212.88 147.577 216.128 147.334 219.871C147.248 220.703 147.371 221.543 147.69 222.316C148.385 223.826 150.048 224.622 151.635 225.123C153.222 225.623 154.926 225.984 156.192 227.062C156.83 227.672 157.408 228.342 157.919 229.061C159.985 231.628 162.765 233.528 165.909 234.521C165.661 232.812 165.544 230.752 166.912 229.695C167.653 229.124 168.642 229.022 169.575 228.941L173.982 228.561C171.043 225.714 167.804 223.194 164.322 221.045C163.103 220.294 161.777 219.501 161.22 218.182C160.933 217.333 160.814 216.436 160.869 215.541C160.839 212.268 160.561 209.002 160.039 205.77C159.676 203.527 159.196 201.303 158.646 199.097C158.492 198.478 157.581 195.701 156.459 196.351C156.194 196.504 155.947 198.265 155.793 198.631C155.425 199.458 154.978 200.248 154.456 200.988Z" fill="#263238"/>
<path d="M205.211 194.994L207.011 198.732C207.878 200.268 208.273 202.026 208.146 203.786L208.252 214.998C208.335 216.496 208.211 217.999 207.883 219.463C207.771 219.946 207.56 220.4 207.263 220.796C206.957 221.138 206.598 221.427 206.198 221.652C202.792 223.778 198.376 224.986 194.777 223.205C193.953 222.766 193.17 222.255 192.436 221.678C191.002 220.618 189.547 219.536 188.474 218.112C187.351 216.621 186.707 214.837 185.952 213.131C184.596 210.071 182.844 207.201 180.741 204.596C180.393 204.252 180.166 203.803 180.096 203.319C180.074 202.336 181.242 201.852 182.152 201.478C183.707 200.839 185.174 199.607 185.434 197.947C188.741 202.279 192.391 206.855 197.609 208.438C197.691 208.49 197.786 208.519 197.883 208.522C197.98 208.525 198.076 208.502 198.161 208.455C198.246 208.408 198.316 208.338 198.365 208.255C198.414 208.171 198.439 208.075 198.438 207.978C198.734 206.74 198.839 205.466 199.055 204.211C199.453 201.928 200.218 199.723 201.322 197.684C201.94 196.54 203.941 192.355 205.211 194.994Z" fill="#263238"/>
<path opacity="0.1" d="M160.554 205.803C160.604 208.456 160.04 211.085 158.905 213.485C158.61 214.015 158.392 214.585 158.259 215.177C158.062 216.44 158.781 217.663 159.604 218.642C161.226 220.568 163.331 222.03 165.703 222.879" fill="black"/>
<path opacity="0.1" d="M199.632 203.566C199.367 204.279 199.608 205.066 199.812 205.798C200.404 207.921 200.681 210.119 200.633 212.322C200.641 212.361 200.64 212.401 200.629 212.439C200.618 212.477 200.598 212.511 200.571 212.54C200.543 212.568 200.509 212.589 200.471 212.6C200.433 212.612 200.393 212.614 200.355 212.607C199.486 212.66 198.493 212.665 197.904 212.026" fill="black"/>
<path opacity="0.1" d="M347.156 309.742C379.513 309.742 405.744 304.128 405.744 297.203C405.744 290.279 379.513 284.665 347.156 284.665C314.799 284.665 288.569 290.279 288.569 297.203C288.569 304.128 314.799 309.742 347.156 309.742Z" fill="black"/>
<path d="M376.45 185.288L372.265 189.467L376.45 193.647L380.635 185.288H376.45Z" fill="#A0616A"/>
<path d="M377.392 149.048C378.567 149.528 379.125 150.84 379.568 152.027L384.996 166.596L386.053 169.431C386.571 170.822 387.09 172.214 387.528 173.631C387.805 174.528 388.05 175.434 388.262 176.349C388.482 177.132 388.567 177.947 388.512 178.759C388.366 179.652 388.039 180.506 387.553 181.269C385.664 184.554 382.974 187.31 379.734 189.278C379.547 188.074 379.061 186.935 378.319 185.967C377.578 184.999 376.605 184.231 375.49 183.736L378.297 182.194C378.891 181.915 379.426 181.525 379.871 181.043C380.142 180.668 380.336 180.241 380.439 179.789C380.542 179.337 380.553 178.869 380.471 178.413C380.303 177.503 380.023 176.617 379.638 175.775C378.696 173.427 377.879 171.032 377.19 168.598C376.782 167.159 376.407 165.68 375.599 164.42C374.866 163.277 373.805 162.364 373.139 161.181C372.124 159.378 372.15 157.158 372.598 155.139C372.976 153.434 373.611 151.794 374.145 150.134C374.564 148.83 376.135 148.534 377.392 149.048Z" fill="#D0CDE1"/>
<path d="M351.51 110.125C349.352 110.853 347.396 112.556 346.954 114.788C346.749 115.823 346.875 116.898 346.702 117.939C346.303 120.352 344.406 122.195 342.656 123.907C340.907 125.619 339.1 127.609 338.972 130.051C338.833 132.726 340.775 135.232 340.439 137.89C340.048 140.977 336.783 142.978 335.976 145.984C335.437 147.991 336.097 150.153 337.184 151.925C339.255 155.302 342.794 157.595 346.563 158.824C350.333 160.053 354.347 160.311 358.312 160.353C363.139 160.403 368.381 159.989 372.008 156.807C374.08 154.974 375.381 152.425 375.651 149.673C375.995 145.987 374.455 142.179 375.517 138.632C376.186 136.4 377.863 134.362 377.613 132.045C377.368 129.781 375.387 128.175 374.029 126.346C372.76 124.637 371.99 122.62 371.236 120.631L368.654 113.826C368.147 112.488 367.589 111.081 366.458 110.203C364.341 108.559 360.937 108.882 358.461 109.221C356.164 109.536 353.719 109.38 351.51 110.125Z" fill="#2F2E41"/>
<path d="M353.507 132.552C353.507 132.552 353.76 140.123 353.002 140.88C352.244 141.637 356.034 146.684 356.034 146.684L362.856 146.432L366.394 143.656L363.362 139.618C363.362 139.618 362.098 133.057 363.109 131.543C364.12 130.029 353.507 132.552 353.507 132.552Z" fill="#A0616A"/>
<path opacity="0.1" d="M353.507 132.552C353.507 132.552 353.76 140.123 353.002 140.88C352.244 141.637 356.034 146.684 356.034 146.684L362.856 146.432L366.394 143.656L363.362 139.618C363.362 139.618 362.098 133.057 363.109 131.543C364.12 130.029 353.507 132.552 353.507 132.552Z" fill="black"/>
<path d="M337.715 190.971L342.01 200.561L345.295 196.523L338.726 187.943L337.715 190.971Z" fill="#A0616A"/>
<path d="M326.218 286.99L324.45 296.833L321.417 301.122L323.186 302.132L326.218 301.627L329.756 300.365L331.272 294.561L334.051 286.99H326.218Z" fill="#A0616A"/>
<path d="M358.561 280.934L357.55 295.066L360.077 297.085L364.12 293.552V283.205L358.561 280.934Z" fill="#A0616A"/>
<path d="M357.676 135.454C362.7 135.454 366.773 131.387 366.773 126.37C366.773 121.352 362.7 117.285 357.676 117.285C352.653 117.285 348.58 121.352 348.58 126.37C348.58 131.387 352.653 135.454 357.676 135.454Z" fill="#A0616A"/>
<path d="M364.696 138.588C364.423 138.457 364.125 138.387 363.823 138.381C363.521 138.375 363.22 138.434 362.943 138.555C362.391 138.799 361.855 139.078 361.339 139.39C360.011 140.079 358.506 140.353 357.021 140.174C356.846 140.161 356.675 140.117 356.516 140.044C356.347 139.939 356.192 139.814 356.053 139.671C355.515 139.234 354.827 139.023 354.136 139.083C353.444 139.142 352.803 139.468 352.347 139.991C352.08 140.323 351.897 140.72 351.605 141.031C350.85 141.838 349.604 141.87 348.499 141.868C346.207 141.805 343.915 142.014 341.673 142.493C339.421 142.979 337.347 144.076 335.68 145.665C335.225 146.092 334.862 146.608 334.615 147.181C334.31 147.966 334.35 148.848 334.076 149.645C333.771 150.532 333.095 151.259 332.821 152.157C332.615 152.832 332.644 153.585 332.299 154.201C333.776 155.478 335.027 157.18 336.503 158.456C337.481 159.302 338.505 160.216 338.872 161.454C339.037 162.217 339.111 162.998 339.091 163.779C339.274 167.511 341.301 170.897 343.567 173.871C344.189 174.753 344.933 175.542 345.776 176.215C346.922 176.994 348.223 177.516 349.59 177.744C352.171 178.272 354.828 178.269 357.463 178.243C360.186 178.216 362.957 178.158 365.545 177.313C366.862 176.946 368.047 176.211 368.961 175.195C370.026 173.889 370.441 172 371.893 171.144C372.245 170.983 372.578 170.785 372.887 170.552C373.183 170.231 373.392 169.841 373.495 169.417C374.003 167.832 374.283 166.183 374.327 164.52C374.29 163.521 374.357 162.522 374.529 161.538C374.78 160.67 375.146 159.84 375.617 159.07L378.627 153.618C378.872 153.175 378.808 152.523 378.831 152.018C378.808 151.289 378.584 150.58 378.183 149.971C376.231 146.525 373.164 143.844 369.486 142.368C369.196 142.269 368.92 142.134 368.665 141.966C368.364 141.713 368.109 141.41 367.912 141.07C367.114 139.868 366.138 138.513 364.696 138.588Z" fill="#D0CDE1"/>
<path d="M327.183 168.279C326.59 169.72 326.154 171.222 325.883 172.756C325.593 174.877 325.935 177.035 326.868 178.962C328.49 182.297 331.683 184.559 333.937 187.504C336.031 190.241 337.278 193.521 339.091 196.451C338.775 195.705 339.159 194.842 339.677 194.218C340.194 193.595 340.856 193.077 341.235 192.362C341.494 191.807 341.656 191.213 341.715 190.605C341.986 188.788 342.132 186.814 341.205 185.228C340.507 184.034 339.301 183.241 338.346 182.24C337.391 181.221 336.69 179.993 336.297 178.653C335.905 177.314 335.833 175.902 336.088 174.53C336.272 173.585 336.61 172.678 336.863 171.75C337.176 170.502 337.414 169.237 337.573 167.961L338.711 160.155C339.014 158.08 339.27 155.782 338.093 154.045C337.863 153.681 337.545 153.381 337.169 153.172C336.858 153.03 336.526 152.937 336.186 152.896C334.948 152.694 333.27 152.152 332.666 153.477C331.936 155.077 331.428 156.82 330.817 158.469L327.183 168.279Z" fill="#D0CDE1"/>
<path d="M370.549 172.55C370.549 172.55 355.529 175.452 351.991 175.452H345.674C345.674 175.452 343.4 179.489 343.4 183.527C343.4 187.565 328.492 244.091 328.492 244.091C328.492 244.091 314.343 290.524 330.009 290.776C345.674 291.028 355.529 291.785 355.781 286.486C356.034 281.187 357.55 212.8 357.55 212.8L359.909 247.964C360.543 256.669 359.866 265.42 357.9 273.925C356.769 278.693 356.945 283.92 362.604 284.972C373.469 286.991 387.113 285.224 387.113 281.439C387.113 277.654 380.038 193.621 380.038 193.621C380.038 193.621 376.501 181.256 374.479 180.246C372.458 179.237 370.549 172.55 370.549 172.55Z" fill="#263238"/>
<path d="M323.439 300.618L328.998 298.599L332.788 289.01L336.831 288.505C336.831 288.505 334.557 293.3 333.293 294.057C332.03 294.814 330.009 301.122 330.009 301.122C330.009 301.122 331.019 303.646 326.218 304.655C321.418 305.665 317.88 306.422 317.88 306.422C317.88 306.422 317.375 305.412 319.649 302.889C321.923 300.365 324.578 296.117 324.578 296.117L323.439 300.618Z" fill="#263238"/>
<path d="M357.55 289.009L356.54 296.58C356.54 296.58 359.319 300.617 360.077 300.617C360.835 300.617 364.878 297.085 364.878 297.085C364.878 297.085 364.625 293.299 364.878 292.29C365.131 291.281 365.636 286.486 364.878 286.233C364.12 285.981 364.12 291.858 364.12 291.858L360.835 295.318L357.668 293.422L357.55 289.009Z" fill="#263238"/>
<path d="M358.434 126.37C363.877 126.37 368.289 123.997 368.289 121.07C368.289 118.144 363.877 115.771 358.434 115.771C352.992 115.771 348.58 118.144 348.58 121.07C348.58 123.997 352.992 126.37 358.434 126.37Z" fill="#2F2E41"/>
<path d="M0 225.066C0 254.794 18.6737 278.849 41.7508 278.849L0 225.066Z" fill="#95C11F"/>
<path d="M41.7507 278.849C41.7507 248.787 62.5895 224.462 88.3422 224.462L41.7507 278.849Z" fill="#42C497"/>
<path d="M15.1272 227.761C15.1272 255.999 27.0351 278.849 41.7509 278.849L15.1272 227.761Z" fill="#42C497"/>
<path d="M41.7507 278.849C41.7507 240.437 65.8371 209.354 95.6032 209.354L41.7507 278.849Z" fill="#95C11F"/>
<path d="M32.9675 279.228C32.9675 279.228 38.8885 279.046 40.6729 277.777C42.4573 276.508 49.7808 274.993 50.2235 277.028C50.6662 279.063 59.1216 287.15 52.4368 287.204C45.7521 287.258 36.9045 286.164 35.1235 285.081C33.3425 283.997 32.9675 279.228 32.9675 279.228Z" fill="#A8A8A8"/>
<path opacity="0.2" d="M52.5561 286.496C45.8714 286.55 37.0238 285.456 35.2428 284.373C33.8865 283.547 33.346 280.587 33.1652 279.221C33.04 279.226 32.9675 279.228 32.9675 279.228C32.9675 279.228 33.3425 283.998 35.1235 285.081C36.9045 286.165 45.7521 287.258 52.4368 287.204C54.3665 287.189 55.033 286.503 54.9964 285.488C54.7283 286.101 53.9924 286.484 52.5561 286.496Z" fill="black"/>
</g>
<defs>
<linearGradient id="paint0_linear_102_2" x1="233" y1="236.5" x2="93" y2="14.5" gradientUnits="userSpaceOnUse">
<stop stop-color="#95C11F"/>
<stop offset="0.5" stop-color="#42C497"/>
<stop offset="1" stop-color="#1192DA"/>
</linearGradient>
<linearGradient id="paint1_linear_102_2" x1="83.5" y1="339.5" x2="356.5" y2="339.5" gradientUnits="userSpaceOnUse">
<stop stop-color="#1D71B8"/>
<stop offset="1" stop-color="#95C11F"/>
</linearGradient>
<clipPath id="clip0_102_2">
<rect width="482" height="352" fill="white"/>
</clipPath>
</defs>
</svg>
